<svg xmlns="http://www.w3.org/2000/svg" xml:space="preserve" id="Layer_1" version="1.1" viewBox="0 0 56.69 56.69" fill="#ffffff"><path d="M46.38 10.71A24.48 24.48 0 0 0 28.95 3.5 24.67 24.67 0 0 0 7.61 40.44L4.1 53.2l13.06-3.42c3.6 1.96 7.65 3 11.77 3h.01A24.67 24.67 0 0 0 53.6 28.14c0-6.58-2.56-12.77-7.21-17.43zm-17.43 37.9c-3.68 0-7.28-.98-10.43-2.85l-.74-.44-7.75 2.03 2.07-7.55-.5-.78A20.5 20.5 0 0 1 28.96 7.65c5.48 0 10.62 2.13 14.49 6a20.5 20.5 0 0 1-14.48 34.96z" class="st0"/><path d="M40.19 33.28c-.62-.3-3.65-1.8-4.21-2-.57-.2-.98-.31-1.39.3-.4.62-1.59 2-1.95 2.42-.35.41-.71.46-1.33.15-.61-.3-2.6-.95-4.95-3.05a18.55 18.55 0 0 1-3.42-4.27c-.36-.61-.04-.94.27-1.25.27-.28.61-.72.92-1.08.3-.36.41-.62.62-1.03.2-.4.1-.77-.06-1.08-.15-.3-1.38-3.33-1.9-4.57-.5-1.2-1-1.03-1.38-1.05-.36-.02-.77-.02-1.18-.02s-1.08.15-1.64.77c-.56.61-2.15 2.1-2.15 5.13s2.2 5.96 2.5 6.37c.32.41 4.35 6.63 10.52 9.3 1.47.63 2.62 1 3.51 1.29 1.48.47 2.82.4 3.88.24 1.18-.17 3.64-1.49 4.16-2.92.5-1.44.5-2.67.35-2.93-.15-.26-.56-.41-1.17-.72z" class="st0"/></svg>